# xmcd
#
# Track frame offsets:
# 150
# 29232
# 46470
# 77069
# 107834
# 134697
# 170712
# 199383
# 223746
# 254712
# 290095
# 306198
#
# Disc length: 4312 seconds
#
#
# Revision: 1
# Processed by: cddbd v1.5.2PL0 Copyright (c) Steve Scherf et al.
# Submitted via: FreeRIP 2.941 
#
DISCID=cc10d60c
DTITLE=The Best In Dance Vol. 1 - CD 3 - The Best In Dance Vol. 1 - CD 3
DYEAR=2003
DGENRE=Dance
TTITLE0=Voodoo and Serano - Give Me The Power (Club Mix)
TTITLE1=Decay - Last Day On Earth (Radio Mix)
TTITLE2=ATB - Long Way Home (Original Mix)
TTITLE3=Martillo Vago - Por Que No (PlazmaTek Club Mix)
TTITLE4=PlazmaTek - Star (Clubmix)
TTITLE5=Floorfilla - Anthem #6 (Cassez La Boite) (Warp Brothers Rmx)
TTITLE6=DJ Sputnik - All The Things She Said (Xtd Version)
TTITLE7=2 Unlimited - No Limit 2.3 (Master Blaster Rmx)
TTITLE8=Mario Lopez - Alone (Original Club Mix)
TTITLE9=Kate Ryan - Mon Coeur Resiste Encore (Xtd Version)
TTITLE10=Captain Hollywood Project - Flying High (Radio Mix)
TTITLE11=Kronos - Magica Europa (Shaun Baker Vs. Seikos Radio Rmx)
EXTD=
EXTT0=
EXTT1=
EXTT2=
EXTT3=
EXTT4=
EXTT5=
EXTT6=
EXTT7=
EXTT8=
EXTT9=
EXTT10=
EXTT11=
PLAYORDER=
